<svg data-v-fde0c5aa="" xmlns="http://www.w3.org/2000/svg" viewBox="0 0 300 300" class="iconAbove"><!----><defs data-v-fde0c5aa=""><linearGradient data-v-fde0c5aa="" gradientTransform="rotate(25)" id="a57beecf-417d-4ce0-ad44-dd33ba4f511b" x1="0%" y1="0%" x2="100%" y2="0%"><stop data-v-fde0c5aa="" offset="0%" stop-color="#0076DD" stop-opacity="1"></stop><stop data-v-fde0c5aa="" offset="100%" stop-color="#00CDE9" stop-opacity="1"></stop></linearGradient></defs><rect data-v-fde0c5aa="" fill="url(#a57beecf-417d-4ce0-ad44-dd33ba4f511b)" x="0" y="0" width="300px" height="300px" class="logo-background-square"></rect><defs data-v-fde0c5aa=""><!----></defs><g data-v-fde0c5aa="" id="3b7f79b4-ff09-45f6-ade9-676af430d51a" fill="#ffffff" transform="matrix(2.6530612244897958,0,0,2.6530612244897958,16.09999992409531,164.51836777706535)"><path d="M5.29 3.75Q7.20 3.75 8.29 4.66Q9.38 5.57 9.38 7.17L9.38 7.17Q9.38 8.76 8.29 9.67Q7.20 10.58 5.29 10.58L5.29 10.58L2.87 10.58L2.87 13.55L1.47 13.55L1.47 3.75L5.29 3.75ZM5.25 9.37Q6.58 9.37 7.28 8.80Q7.98 8.23 7.98 7.17L7.98 7.17Q7.98 6.10 7.28 5.54Q6.58 4.97 5.25 4.97L5.25 4.97L2.87 4.97L2.87 9.37L5.25 9.37ZM12.40 7.38Q12.75 6.73 13.44 6.40Q14.13 6.06 15.11 6.06L15.11 6.06L15.11 7.36Q14.99 7.35 14.80 7.35L14.80 7.35Q13.71 7.35 13.08 8.00Q12.46 8.65 12.46 9.86L12.46 9.86L12.46 13.55L11.12 13.55L11.12 6.13L12.40 6.13L12.40 7.38ZM19.87 13.64Q18.76 13.64 17.88 13.15Q17.00 12.66 16.50 11.79Q16.00 10.93 16.00 9.84L16.00 9.84Q16.00 8.75 16.50 7.89Q17.00 7.03 17.88 6.54Q18.76 6.06 19.87 6.06L19.87 6.06Q20.97 6.06 21.85 6.54Q22.72 7.03 23.22 7.89Q23.72 8.75 23.72 9.84L23.72 9.84Q23.72 10.93 23.22 11.79Q22.72 12.66 21.85 13.15Q20.97 13.64 19.87 13.64L19.87 13.64ZM19.87 12.46Q20.58 12.46 21.15 12.13Q21.71 11.80 22.04 11.21Q22.36 10.61 22.36 9.84L22.36 9.84Q22.36 9.07 22.04 8.48Q21.71 7.88 21.15 7.56Q20.58 7.24 19.87 7.24L19.87 7.24Q19.15 7.24 18.59 7.56Q18.02 7.88 17.69 8.48Q17.36 9.07 17.36 9.84L17.36 9.84Q17.36 10.61 17.69 11.21Q18.02 11.80 18.59 12.13Q19.15 12.46 19.87 12.46L19.87 12.46ZM31.23 3.16L32.58 3.16L32.58 13.55L31.29 13.55L31.29 12.38Q30.84 12.99 30.16 13.31Q29.47 13.64 28.64 13.64L28.64 13.64Q27.57 13.64 26.71 13.16Q25.86 12.68 25.38 11.82Q24.89 10.96 24.89 9.84L24.89 9.84Q24.89 8.72 25.38 7.87Q25.86 7.01 26.71 6.54Q27.57 6.06 28.64 6.06L28.64 6.06Q29.44 6.06 30.11 6.36Q30.79 6.66 31.23 7.25L31.23 7.25L31.23 3.16ZM28.76 12.46Q29.46 12.46 30.03 12.13Q30.60 11.80 30.93 11.21Q31.25 10.61 31.25 9.84L31.25 9.84Q31.25 9.07 30.93 8.48Q30.60 7.88 30.03 7.56Q29.46 7.24 28.76 7.24L28.76 7.24Q28.04 7.24 27.48 7.56Q26.91 7.88 26.58 8.48Q26.25 9.07 26.25 9.84L26.25 9.84Q26.25 10.61 26.58 11.21Q26.91 11.80 27.48 12.13Q28.04 12.46 28.76 12.46L28.76 12.46ZM40.70 6.13L42.04 6.13L42.04 13.55L40.77 13.55L40.77 12.43Q40.36 13.01 39.70 13.32Q39.03 13.64 38.25 13.64L38.25 13.64Q36.76 13.64 35.91 12.82Q35.06 12.00 35.06 10.40L35.06 10.40L35.06 6.13L36.40 6.13L36.40 10.25Q36.40 11.33 36.92 11.88Q37.44 12.43 38.40 12.43L38.40 12.43Q39.47 12.43 40.08 11.79Q40.70 11.14 40.70 9.97L40.70 9.97L40.70 6.13ZM47.84 13.64Q46.70 13.64 45.82 13.15Q44.93 12.66 44.42 11.79Q43.92 10.93 43.92 9.84L43.92 9.84Q43.92 8.75 44.42 7.89Q44.93 7.03 45.82 6.54Q46.70 6.06 47.84 6.06L47.84 6.06Q48.85 6.06 49.64 6.47Q50.43 6.87 50.86 7.64L50.86 7.64L49.84 8.30Q49.49 7.77 48.97 7.50Q48.45 7.24 47.82 7.24L47.82 7.24Q47.10 7.24 46.52 7.56Q45.93 7.88 45.61 8.48Q45.28 9.07 45.28 9.84L45.28 9.84Q45.28 10.63 45.61 11.22Q45.93 11.82 46.52 12.14Q47.10 12.46 47.82 12.46L47.82 12.46Q48.45 12.46 48.97 12.19Q49.49 11.93 49.84 11.40L49.84 11.40L50.86 12.04Q50.43 12.81 49.64 13.22Q48.85 13.64 47.84 13.64L47.84 13.64ZM56.45 12.15L56.87 13.12Q56.57 13.37 56.14 13.50Q55.71 13.64 55.24 13.64L55.24 13.64Q54.12 13.64 53.51 13.03Q52.89 12.43 52.89 11.31L52.89 11.31L52.89 7.24L51.63 7.24L51.63 6.13L52.89 6.13L52.89 4.51L54.24 4.51L54.24 6.13L56.36 6.13L56.36 7.24L54.24 7.24L54.24 11.26Q54.24 11.86 54.54 12.18Q54.84 12.50 55.40 12.50L55.40 12.50Q56.01 12.50 56.45 12.15L56.45 12.15ZM66.28 3.75Q68.18 3.75 69.27 4.66Q70.36 5.57 70.36 7.17L70.36 7.17Q70.36 8.76 69.27 9.67Q68.18 10.58 66.28 10.58L66.28 10.58L63.85 10.58L63.85 13.55L62.45 13.55L62.45 3.75L66.28 3.75ZM66.23 9.37Q67.56 9.37 68.26 8.80Q68.96 8.23 68.96 7.17L68.96 7.17Q68.96 6.10 68.26 5.54Q67.56 4.97 66.23 4.97L66.23 4.97L63.85 4.97L63.85 9.37L66.23 9.37ZM77.94 6.13L79.28 6.13L79.28 13.55L78.01 13.55L78.01 12.43Q77.60 13.01 76.94 13.32Q76.27 13.64 75.49 13.64L75.49 13.64Q74.00 13.64 73.15 12.82Q72.30 12.00 72.30 10.40L72.30 10.40L72.30 6.13L73.64 6.13L73.64 10.25Q73.64 11.33 74.16 11.88Q74.68 12.43 75.64 12.43L75.64 12.43Q76.71 12.43 77.32 11.79Q77.94 11.14 77.94 9.97L77.94 9.97L77.94 6.13ZM81.84 13.55L81.84 3.16L83.19 3.16L83.19 13.55L81.84 13.55ZM87.88 13.64Q86.97 13.64 86.13 13.39Q85.29 13.15 84.81 12.77L84.81 12.77L85.37 11.70Q85.86 12.05 86.56 12.26Q87.26 12.47 87.98 12.47L87.98 12.47Q89.74 12.47 89.74 11.47L89.74 11.47Q89.74 11.13 89.50 10.93Q89.26 10.74 88.91 10.65Q88.55 10.56 87.89 10.44L87.89 10.44Q87.00 10.30 86.43 10.12Q85.86 9.94 85.46 9.51Q85.05 9.07 85.05 8.29L85.05 8.29Q85.05 7.28 85.89 6.67Q86.73 6.06 88.14 6.06L88.14 6.06Q88.89 6.06 89.63 6.24Q90.37 6.43 90.85 6.73L90.85 6.73L90.27 7.80Q89.36 7.21 88.13 7.21L88.13 7.21Q87.28 7.21 86.83 7.49Q86.38 7.77 86.38 8.23L86.38 8.23Q86.38 8.60 86.63 8.81Q86.88 9.02 87.25 9.11Q87.63 9.21 88.30 9.34L88.30 9.34Q89.19 9.49 89.75 9.67Q90.30 9.84 90.69 10.26Q91.08 10.68 91.08 11.44L91.08 11.44Q91.08 12.45 90.22 13.04Q89.36 13.64 87.88 13.64L87.88 13.64ZM99.47 9.88Q99.47 10.04 99.44 10.29L99.44 10.29L93.42 10.29Q93.55 11.27 94.28 11.87Q95.02 12.46 96.11 12.46L96.11 12.46Q97.44 12.46 98.25 11.56L98.25 11.56L98.99 12.43Q98.49 13.02 97.74 13.33Q96.99 13.64 96.07 13.64L96.07 13.64Q94.89 13.64 93.98 13.15Q93.07 12.67 92.57 11.80Q92.08 10.93 92.08 9.84L92.08 9.84Q92.08 8.76 92.56 7.90Q93.04 7.03 93.89 6.54Q94.74 6.06 95.80 6.06L95.80 6.06Q96.87 6.06 97.70 6.54Q98.53 7.03 99.00 7.90Q99.47 8.76 99.47 9.88L99.47 9.88ZM95.80 7.20Q94.84 7.20 94.18 7.78Q93.53 8.37 93.42 9.32L93.42 9.32L98.18 9.32Q98.07 8.39 97.42 7.79Q96.77 7.20 95.80 7.20L95.80 7.20Z"></path></g><defs data-v-fde0c5aa=""><!----></defs><g data-v-fde0c5aa="" id="7f6bc454-5886-4b43-ac5a-60dad613cca5" stroke="none" fill="#ffffff" transform="matrix(4.776439884278475,0,0,4.776439884278475,119.66823950114401,96.80142940479777)"><path d="M6.913.522A.126.126 0 006.83.56L4.72 2.73a.126.126 0 000 .18l1.11 1.018-1.888 2.058-.547-2.223a1.218 1.218 0 00-1.183-.927H.959a.166.166 0 000 .332h1.253a.886.886 0 01.86.674l1.262 5.132a1.107 1.107 0 001.076.843h5.434a.166.166 0 000-.333H5.41a.775.775 0 01-.753-.59l-.068-.276h6.192l1.123-4.485a.166.166 0 00-.322-.08h.01l-.144.573L7.011.556a.126.126 0 00-.093-.034zm.016.415l1.845 1.692L7.01 4.552l-1.9-1.743zm2.09 1.917l1.972 1.809L9.17 6.535 7.254 4.778zm-2.938 1.3L8.05 5.959 6.257 7.912 4.289 6.107zm5.347.536l-.9 3.597H6.366l1.929-2.103.798.732a.126.126 0 00.175-.005zM4.03 6.321L6.17 8.287H4.513zM5.685 10.374a.895.895 0 00-.869.895.895.895 0 101.79 0 .895.895 0 00-.921-.895zm.016.325a.563.563 0 01.573.57.563.563 0 11-1.126 0 .563.563 0 01.553-.57zM9.427 10.374a.895.895 0 00-.869.895.895.895 0 101.79 0 .895.895 0 00-.92-.895zm.01.332a.563.563 0 01.58.563.563.563 0 11-1.127 0 .563.563 0 01.547-.563z"></path></g><!----></svg>